<svg width="9" height="9" viewBox="0 0 9 9" fill="none" xmlns="http://www.w3.org/2000/svg">
<path d="M1.44842 0.289896C1.09045 -0.0679356 0.540975 -0.0987235 0.221079 0.221057C-0.0988106 0.540831 -0.0678934 1.09 0.290068 1.44783L3.34044 4.4971L0.290178 7.54625C-0.0682229 7.90453 -0.0977092 8.45446 0.224442 8.7765C0.546586 9.09852 1.09673 9.06905 1.45513 8.71078L4.50538 5.66162L7.54582 8.70096C7.90378 9.05879 8.45315 9.08971 8.77304 8.76993C9.09293 8.45015 9.06213 7.90086 8.70416 7.54303L5.66373 4.50369L8.7108 1.45772C9.06907 1.09958 9.09854 0.549649 8.7764 0.227621C8.45425 -0.0944138 7.90412 -0.0649462 7.54585 0.293193L4.49878 3.33916L1.44842 0.289896Z" fill="white"/>
</svg>
