<svg width="82" height="67" viewBox="0 0 82 67" fill="none" xmlns="http://www.w3.org/2000/svg">
<path d="M48.1435 40.389C47.0672 31.4265 52.3058 21.5378 60.1202 20.5993C67.9345 19.6609 75.3655 28.0282 76.4418 36.9907C77.5181 45.9532 72.0558 53.9795 64.2415 54.9179C56.4271 55.8563 49.2198 49.3515 48.1435 40.389Z" fill="#7686FF"/>
<path d="M-19.9921 61.3336C-21.7901 46.3616 -8.25392 32.4237 4.817 30.8541C17.8879 29.2844 29.9416 40.1491 31.7396 55.1212C33.5376 70.0932 24.399 83.503 11.3281 85.0726C-1.74281 86.6423 -18.1941 76.3057 -19.9921 61.3336Z" fill="#ADB8FA"/>
<path d="M22.7 17.2352C21.9602 11.0752 26.0925 5.51336 31.9296 4.81238C35.6251 4.36859 36.6082 6.2691 39.5938 6.93817C41.9823 7.47343 46.3194 6.32839 47.2748 14.284C48.0146 20.4439 40.4456 26.4185 34.6085 27.1195C28.7713 27.8204 23.4397 23.3951 22.7 17.2352Z" fill="#01EBDE"/>
</svg>
