<svg width="10" height="10" viewBox="0 0 10 10" fill="none" xmlns="http://www.w3.org/2000/svg">
<path d="M3.84351 9.12753C3.52965 9.03978 3.22702 8.91625 2.94086 8.75912L3.01553 8.19147C3.05 7.92957 2.90841 7.67692 2.6789 7.59068C2.52592 7.5332 2.39316 7.4287 2.29499 7.28853L1.99262 6.85685C1.98309 6.84326 1.97793 6.827 1.97767 6.8099L1.9641 5.89332C1.96352 5.85402 1.98995 5.81971 2.02555 5.81351C2.25919 5.77277 2.42228 5.54008 2.39685 5.28374L2.37102 5.02333C2.35776 4.88954 2.29324 4.76683 2.19401 4.68667L2.00345 4.53274C1.7999 4.36833 1.54827 4.27777 1.29491 4.27777H1.16914C1.12548 4.27777 1.08155 4.27392 1.03851 4.26635L0.785083 4.22172C0.964969 3.24075 1.4822 2.35426 2.25568 1.7085C2.80087 1.25333 3.45249 0.940144 4.14478 0.799793C4.2498 0.894992 4.33107 1.01709 4.3818 1.15679L4.39232 1.18578C4.41866 1.25831 4.43619 1.33438 4.4444 1.41188L4.45375 1.50008C4.47036 1.65696 4.44833 1.81632 4.39008 1.96092L4.2892 2.21135C4.22315 2.37523 4.11479 2.51229 3.97579 2.60763L3.8501 2.69387C3.72274 2.78122 3.64829 2.93725 3.65578 3.10103L3.67277 3.47102C3.67363 3.48991 3.66557 3.50246 3.65866 3.50967C3.65175 3.51687 3.6399 3.52501 3.62259 3.52329C3.60729 3.5217 3.59381 3.51195 3.58651 3.49721L3.43213 3.18481C3.37869 3.07661 3.28572 2.99562 3.17708 2.96258L2.63144 2.79664C2.48804 2.75303 2.33441 2.766 2.19889 2.83311L2.06895 2.89747C1.79559 3.03286 1.64619 3.36254 1.71371 3.68132C1.74043 3.80756 1.79902 3.92274 1.88308 4.01433L2.2376 4.40064C2.25759 4.42238 2.27674 4.44559 2.29459 4.46958L2.53763 4.7962C2.64496 4.94044 2.80407 5.02307 2.97444 5.02305H2.97617L3.63832 5.02085C3.7061 5.02085 3.76998 5.06043 3.80415 5.12428C3.88364 5.27279 4.01774 5.37866 4.17207 5.41469L4.42017 5.47261C4.47472 5.48535 4.52133 5.52325 4.54803 5.57663L4.66785 5.81598C4.71589 5.91196 4.78856 5.98886 4.87801 6.03839L5.44113 6.35019C5.48744 6.37584 5.5142 6.43079 5.50778 6.48696C5.50405 6.5195 5.48959 6.54939 5.46703 6.57112L5.25313 6.77729C5.19283 6.83541 5.14601 6.90956 5.11772 6.99171L5.07108 7.12721C5.05689 7.1685 5.02731 7.20186 4.98991 7.21874L4.76208 7.32167C4.56802 7.40934 4.4426 7.61393 4.4426 7.84286C4.4426 7.86859 4.43679 7.89427 4.42583 7.91709L3.84351 9.12753Z" fill="white"/>
<path d="M7.8405 1.79085C8.07306 1.99645 8.28129 2.22529 8.46365 2.47556L8.09689 2.38379C7.97927 2.35436 7.85841 2.38552 7.76533 2.46918C7.67223 2.55286 7.62123 2.67627 7.62543 2.80772C7.62561 2.81315 7.62312 2.8184 7.6189 2.82138L7.3495 3.0131C7.34497 3.01631 7.3392 3.01651 7.33451 3.01358L6.95502 2.77809C6.92126 2.75712 6.90385 2.71369 6.91272 2.67244L6.99811 2.27529C7.00726 2.23276 7.04164 2.20223 7.08171 2.20102L7.40321 2.19127C7.61886 2.18473 7.79837 2.01314 7.8405 1.79085Z" fill="white"/>
<path d="M9.12085 6.18196L9.09923 6.15282C9.01033 6.03316 8.87783 5.96722 8.74174 5.96722C8.69001 5.96722 8.63775 5.97675 8.58718 5.99649L8.38929 6.07371C8.29147 6.11191 8.18515 6.12531 8.08199 6.11244L8.02387 6.10521C7.78249 6.07518 7.57244 5.90565 7.47572 5.66281C7.42029 5.52371 7.40529 5.37154 7.4323 5.22279L7.55196 4.56384C7.57735 4.42403 7.63869 4.29583 7.72937 4.1931L7.77659 4.13958C7.93159 3.96395 8.15597 3.88225 8.3767 3.92105L8.69048 3.9762C8.6927 3.97659 8.69494 3.97707 8.69718 3.97766L9.19241 4.10806C9.25437 4.40042 9.28571 4.69989 9.28571 4.99998C9.28573 5.40488 9.23045 5.80037 9.12085 6.18196Z" fill="white"/>
<path fill-rule="evenodd" clip-rule="evenodd" d="M10 5C10 7.76142 7.76142 10 5 10C2.23858 10 0 7.76142 0 5C0 2.23858 2.23858 0 5 0C7.76142 0 10 2.23858 10 5ZM5.00001 9.28571C4.7383 9.28571 4.47709 9.26187 4.22053 9.21468L4.75446 8.10479C4.79318 8.02432 4.81367 7.93372 4.81367 7.84284C4.81367 7.77797 4.84921 7.71997 4.9042 7.69512L5.13205 7.59219C5.26401 7.53255 5.36842 7.41479 5.41854 7.26913L5.46516 7.13371C5.47224 7.11318 5.48393 7.09464 5.49899 7.08012L5.7129 6.87394C5.80312 6.78697 5.86102 6.66733 5.87597 6.53712C5.90179 6.31238 5.79461 6.0924 5.60926 5.98975L5.04612 5.67795C5.02378 5.66558 5.00561 5.64636 4.99362 5.62237L4.8738 5.38302C4.79529 5.22614 4.65828 5.11472 4.49793 5.07726L4.24985 5.01935C4.19735 5.0071 4.15173 4.97106 4.12468 4.92056C4.02422 4.73291 3.8382 4.61655 3.63892 4.61655H3.63719L2.97506 4.61875C2.9171 4.61875 2.86237 4.59064 2.82586 4.54158L2.5828 4.21496C2.55686 4.18009 2.52897 4.14636 2.49994 4.11474L2.14544 3.72848C2.11061 3.69054 2.08634 3.64281 2.07526 3.59048C2.04729 3.45834 2.10921 3.32169 2.2225 3.26558L2.35243 3.20122C2.40862 3.17341 2.47229 3.16802 2.53174 3.1861L3.07738 3.35204C3.08933 3.35569 3.09955 3.36459 3.10545 3.3765L3.25985 3.68891C3.32603 3.82282 3.44848 3.91136 3.58744 3.92579C3.70803 3.93834 3.8275 3.89317 3.91511 3.80193C4.00271 3.7107 4.04946 3.58271 4.04342 3.45083L4.02643 3.08083C4.02562 3.06279 4.0338 3.04563 4.04783 3.03602L4.17352 2.94978C4.37553 2.81119 4.53302 2.61205 4.629 2.37388L4.72988 2.12345C4.81454 1.91331 4.84654 1.68174 4.8224 1.45372L4.81305 1.36552C4.80113 1.25294 4.77566 1.1424 4.73737 1.03699L4.72684 1.00797C4.69128 0.910096 4.64524 0.818266 4.59014 0.73377C4.72626 0.720807 4.86342 0.714286 5.00003 0.714286C5.89646 0.714286 6.75086 0.986584 7.47745 1.5028L7.47883 1.69008C7.47921 1.74213 7.44067 1.78566 7.39292 1.78713L7.07144 1.79688C6.86308 1.80318 6.68438 1.96203 6.63687 2.18313L6.55148 2.58024C6.50538 2.79462 6.59583 3.02048 6.7714 3.12943L7.15087 3.36492C7.21043 3.40187 7.27615 3.42026 7.34173 3.42026C7.41506 3.42026 7.48822 3.39727 7.55239 3.35162L7.82179 3.1599C7.93407 3.08002 8.0009 2.93969 7.99624 2.79371C7.99617 2.79161 7.99599 2.78596 8.00146 2.78106C8.00699 2.77613 8.01198 2.77743 8.01383 2.77787L8.42992 2.88199C8.44026 2.88459 8.45082 2.88673 8.46145 2.88837L8.75559 2.93437C8.8835 3.1664 8.98928 3.4093 9.07181 3.66035L8.78442 3.58466C8.77296 3.58164 8.76124 3.57905 8.74959 3.577L8.43576 3.52186C8.095 3.46199 7.74847 3.58808 7.50912 3.85933L7.4619 3.91285C7.3219 4.07149 7.22718 4.26946 7.18796 4.48535L7.06831 5.1443C7.02658 5.374 7.04975 5.60896 7.1353 5.82377C7.28467 6.1988 7.609 6.46058 7.98173 6.50692L8.03986 6.51415C8.19925 6.53401 8.36336 6.5133 8.51436 6.45435L8.71226 6.37711C8.74751 6.36334 8.78711 6.37541 8.81078 6.40724L8.83675 6.44218C8.84889 6.45851 8.85585 6.47905 8.85644 6.5L8.86582 6.8514C8.15525 8.33184 6.6434 9.28571 5.00001 9.28571ZM2.594 8.54646L2.64825 8.13405C2.65749 8.0638 2.61951 7.99604 2.55795 7.9729C2.33563 7.88936 2.1427 7.73755 2.00003 7.53383L1.69765 7.10214C1.63966 7.01936 1.6082 6.92056 1.60666 6.81642L1.59309 5.89983C1.58954 5.66079 1.75024 5.45203 1.9669 5.41428C2.0053 5.40758 2.0321 5.36932 2.02793 5.3272L2.0021 5.06682C1.99994 5.04482 1.98931 5.02464 1.97302 5.01148L1.78245 4.85755C1.6424 4.74441 1.46925 4.68209 1.29491 4.68209H1.16914C1.10571 4.68209 1.04182 4.67651 0.979303 4.66548L0.731003 4.62176C0.719888 4.74798 0.714286 4.87453 0.714286 5C0.714286 6.4181 1.42812 7.75277 2.594 8.54646Z" fill="white"/>
</svg>
