<svg width="13" height="12" viewBox="0 0 13 12" fill="none" xmlns="http://www.w3.org/2000/svg">
<path fill-rule="evenodd" clip-rule="evenodd" d="M6.39163 0C9.91622 0 12.7833 2.64662 12.7833 5.90003C12.7833 6.92925 12.4917 7.94046 11.939 8.82991L12.989 11.7368C13.014 11.8067 12.9957 11.8832 12.9415 11.9368C12.8998 11.9778 12.8422 12 12.7833 12C12.7648 12 12.7465 11.9978 12.728 11.9934L9.29027 11.1584C8.39729 11.5785 7.39692 11.8 6.39163 11.8C2.86703 11.8 0 9.15342 0 5.90003C0 2.64662 2.86703 0 6.39163 0ZM7.00655 7.18507C7.00655 6.62736 7.01771 6.30557 7.62528 5.84441C7.92354 5.61919 8.86252 4.88976 8.86252 3.8816C8.86252 2.87351 7.92354 2.11198 6.50959 2.11198C5.01819 2.11198 4.33326 2.97007 4.33326 3.54911C4.33326 3.96746 4.69783 4.16049 4.99609 4.16049C5.24732 4.16049 5.34964 4.01401 5.46809 3.84442C5.63088 3.61136 5.82414 3.33466 6.47634 3.33466C7.02876 3.33466 7.47057 3.57067 7.47057 4.06401C7.47057 4.53789 7.05636 4.84663 6.70608 5.10772C6.62828 5.16571 6.55364 5.22134 6.48739 5.27592C6.16713 5.54404 5.74732 5.98379 5.74732 6.90618C5.74732 7.46389 5.90192 7.62474 6.35478 7.62474C6.89615 7.62474 7.00655 7.38889 7.00655 7.18507ZM6.36606 10.0171C6.84112 10.0171 7.21674 9.63098 7.21674 9.1913C7.21674 8.74078 6.83007 8.36541 6.36606 8.36541C5.90225 8.36541 5.52663 8.74078 5.52663 9.1913C5.52663 9.63098 5.8912 10.0171 6.36606 10.0171Z" fill="white" fill-opacity="0.7"/>
</svg>
