<svg width="338" height="638" viewBox="0 0 338 638" fill="none" xmlns="http://www.w3.org/2000/svg">
<path d="M28.5542 0.0217857C28.5485 0.0140476 29.6222 -0.00305603 29.6132 0.022213C29.6132 0.022213 290.565 0.0199967 308.16 0.00100136C325.755 -0.017994 338.234 7.09681 337.975 28.9824L337.984 549.982L28.5599 0.0316286L28.5542 0.0217857Z" fill="#7081FF"/>
<path d="M338 584.312L337.975 28.9824L337.984 549.982L28.5599 0.0316286C9.14193 0.382039 0.000361715 10.5104 0 29.982V584.982C0 604.664 8.77109 615.133 29.9174 615.133H150.396L163.322 633.811C163.697 634.352 164.116 634.866 164.594 635.319C168.165 638.705 170.129 638.709 173.707 635.329C174.184 634.879 174.602 634.369 174.977 633.831L187.99 615.133H308.16C328.12 614.982 338 603.982 338 584.312Z" fill="#A4AFFF"/>
</svg>
